inDegrees=yes
name=ik_S47_A08_T01
DataType=double
version=3
OpenSimVersion=4.3-2021-08-27-4bc7ad9
endheader
time	pelvis_tilt	pelvis_list	pelvis_rotation	pelvis_tx	pelvis_ty	pelvis_tz	hip_flexion_r	hip_adduction_r	hip_rotation_r	knee_angle_r	knee_angle_r_beta	ankle_angle_r	subtalar_angle_r	mtp_angle_r	hip_flexion_l	hip_adduction_l	hip_rotation_l	knee_angle_l	knee_angle_l_beta	ankle_angle_l	subtalar_angle_l	mtp_angle_l	lumbar_extension	lumbar_bending	lumbar_rotation	arm_flex_r	arm_add_r	arm_rot_r	elbow_flex_r	pro_sup_r	wrist_flex_r	wrist_dev_r	arm_flex_l	arm_add_l	arm_rot_l	elbow_flex_l	pro_sup_l	wrist_flex_l	wrist_dev_l
0	0	0	0	0	0.9399999999999999	0	0	0	0	0	0	0	0	0	0	0	0	0	0	0	0	0	0	0	0	0	0	0	0	89.99999999963507	0	0	0	0	0	0	89.99999999869995	0	0
0.02	-16.03214343130568	-5.249402566332573	24.01518261581483	0	0.9399999999999999	0	3.173263522255493	-1.486078164486587	-1.069083138475889	4.94279195714376	0.08626799389325307	0	0	0	3.173263522255493	-1.486078164486587	-1.069083138475889	4.94279195714376	0.08626799389325307	0	0	0	-15.02069776312121	-2.856149132991388	3.935216454484464	47.39833919632316	-1.320886848210105	15.50667360432062	37.88655334424478	108.3668875818022	0	0	39.75517402707408	-2.743438705212773	13.56571405112592	36.71256516710002	93.29688443020652	0	0
0.04	-15.45654074836761	-5.878445156510304	25.59828491890217	0	0.9399999999999999	0	36.49223235324314	-17.32045350201328	-12.1554062058873	48.53026580712808	0.8470129252024085	0	0	0	36.49223235324314	-17.32045350201328	-12.1554062058873	48.53026580712808	0.8470129252024085	0	0	0	-15.31322187822691	-1.69883418196263	2.672444983682284	47.37049641665861	-1.306363597014607	15.52683973514564	37.85755801821699	108.3576421167052	0	0	39.75256902363446	-2.775050173344312	13.58752973546333	36.72922759493238	93.25317829195457	0	0
0.06	-15.45308727921814	-5.877993305455263	25.61485902804945	0	0.9399999999999999	0	36.52184203699228	-17.24988098951112	-12.14026053894297	48.54570095672137	0.8472823193833491	0	0	0	36.52184203699228	-17.24988098951112	-12.14026053894297	48.54570095672137	0.8472823193833491	0	0	0	-15.31285333204021	-1.691819913265759	2.667135163300072	47.37443428136289	-1.323737812632891	15.52062775681631	37.82515201259852	108.3604369458012	0	0	39.78012077279309	-2.720372362748887	13.51661706651865	36.70149063877388	93.25907076651745	0	0
0.08	-15.4400238459037	-5.887090865963843	25.63671842207471	0	0.9399999999999999	0	36.5644256534618	-17.14539865372809	-12.11836851080125	48.56786349343477	0.8476691286195921	0	0	0	36.5644256534618	-17.14539865372809	-12.11836851080125	48.56786349343477	0.8476691286195921	0	0	0	-15.30815521601606	-1.697246658228678	2.667515825889329	47.35930563982862	-1.320397523933307	15.51143960372296	37.86542302302383	108.3526027718334	0	0	39.76913794540219	-2.719128773155793	13.54482374197094	36.74708759321423	93.23917787631079	0	0
0.1	-15.43616227979326	-5.896348799117991	25.64131848023464	0	0.9399999999999999	0	36.57480000681344	-17.12460903594794	-12.11345344007013	48.57338875304774	0.847765562591866	0	0	0	36.57480000681344	-17.12460903594794	-12.11345344007013	48.57338875304774	0.847765562591866	0	0	0	-15.30934412005675	-1.705269147339184	2.667137482956539	47.36005653744301	-1.332113797438739	15.49681734605421	37.83076163738061	108.3525033206573	0	0	39.77504822097346	-2.719584717206091	13.54735152050267	36.72228194172055	93.23853440682127	0	0
0.12	-15.42789347986198	-5.904555376647492	25.64283901765339	0	0.9399999999999999	0	36.61135366418513	-17.05799096496917	-12.0969330346143	48.59306355941693	0.8481089527427007	0	0	0	36.61135366418513	-17.05799096496917	-12.0969330346143	48.59306355941693	0.8481089527427007	0	0	0	-15.30892771061187	-1.706313165217595	2.661666723874133	47.35090911490988	-1.314393770500578	15.51104312359693	37.85253398880127	108.3314900561523	0	0	39.77042356433981	-2.710754450193094	13.56139492115119	36.74406043342836	93.2306806959492	0	0
0.14	-15.4226162896399	-5.906140306531071	25.63385400973721	0	0.9399999999999999	0	36.6445801626439	-16.99123751838248	-12.08123353767416	48.61078456883017	0.8484182427037386	0	0	0	36.6445801626439	-16.99123751838248	-12.08123353767416	48.61078456883017	0.8484182427037386	0	0	0	-15.30788969254091	-1.701121714604646	2.656430563566215	47.33994232343343	-1.311563478658166	15.51332934210925	37.83890810600044	108.3632400100941	0	0	39.77083447499454	-2.725555710457157	13.54467031000703	36.7306391167197	93.22640004632666	0	0
0.16	-15.4215654999438	-5.90364971400342	25.62661764200557	0	0.9399999999999999	0	36.65853595585335	-16.95670883626031	-12.07406794089542	48.61806235065432	0.8485452639588118	0	0	0	36.65853595585335	-16.95670883626031	-12.07406794089542	48.61806235065432	0.8485452639588118	0	0	0	-15.3073033045343	-1.695384938526895	2.653846281047198	47.35032630807189	-1.316932319097999	15.53234841114705	37.85477688314348	108.3631304526655	0	0	39.77329197507062	-2.716909413460206	13.5441009628954	36.75974033464706	93.23562115904669	0	0
0.18	-15.4075293541707	-5.899130615093463	25.610531572728	0	0.9399999999999999	0	36.66934050981613	-16.93191982579952	-12.06866466995952	48.62374727215307	0.8486444845566824	0	0	0	36.66934050981613	-16.93191982579952	-12.06866466995952	48.62374727215307	0.8486444845566824	0	0	0	-15.29419510134906	-1.692726693002147	2.645939289436446	47.35218984765849	-1.295226527976574	15.536514699887	37.84457961643275	108.3717668396305	0	0	39.73628770192503	-2.722975616899582	13.52248296630773	36.75806664488743	93.23617838214741	0	0
0.2	-15.40152840801198	-5.895661637730982	25.59431480316853	0	0.9399999999999999	0	36.68927212689097	-16.89138183329491	-12.05923171498899	48.63438000542569	0.8488300607607759	0	0	0	36.68927212689097	-16.89138183329491	-12.05923171498899	48.63438000542569	0.8488300607607759	0	0	0	-15.28928004298741	-1.686533150412266	2.642096956313795	47.35328495074587	-1.310831956755619	15.54229073263383	37.79607292500094	108.3795910098825	0	0	39.73115095417489	-2.722183557152204	13.51741929374384	36.77550350804351	93.32436606002622	0	0
0.22	-15.3867845647354	-5.89722157765886	25.57817012600913	0	0.9399999999999999	0	36.73880521764487	-16.77014991557711	-12.03398493850501	48.66024780411063	0.8492815390180712	0	0	0	36.73880521764487	-16.77014991557711	-12.03398493850501	48.66024780411063	0.8492815390180712	0	0	0	-15.28100727237075	-1.683086876282298	2.63927792993106	47.33386291709843	-1.297058460962045	15.52755551875559	37.82041378435105	108.3333149680279	0	0	39.66579212647628	-2.71735769799661	13.56474678421426	36.91310520731394	93.42751716774588	0	0
0.24	-15.38480820388531	-5.89708951359302	25.5581939073208	0	0.9399999999999999	0	36.75142034159629	-16.75409830137422	-12.02894609820454	48.66730104463686	0.849404641288189	0	0	0	36.75142034159629	-16.75409830137422	-12.02894609820454	48.66730104463686	0.849404641288189	0	0	0	-15.28041171060536	-1.681050602649834	2.640178237471883	47.35303795285728	-1.289241639834736	15.54754012989171	37.76990209199184	108.3557883690091	0	0	39.6741901894025	-2.736141846777596	13.53051711537752	36.91853243904533	93.60910389351133	0	0
0.26	-15.36527646674134	-5.893497797008246	25.52484858106162	0	0.9399999999999999	0	36.78587976109701	-16.68041015575121	-12.01235662012081	48.68560428706562	0.8497240931323616	0	0	0	36.78587976109701	-16.68041015575121	-12.01235662012081	48.68560428706562	0.8497240931323616	0	0	0	-15.26447137387767	-1.677784827321212	2.636275984704833	47.33773963641558	-1.271837181504528	15.59041937825089	37.69765958548213	108.3829081974181	0	0	39.60556505446783	-2.764742560753887	13.56967269496258	36.97697726117035	93.76884988588503	0	0
0.28	-15.37275325803727	-5.920197634731689	25.46144980742452	0	0.9399999999999999	0	36.78783936003035	-16.67491049064335	-12.01131079356176	48.68663662066683	0.8497421107526817	0	0	0	36.78783936003035	-16.67491049064335	-12.01131079356176	48.68663662066683	0.8497421107526817	0	0	0	-15.27681344886975	-1.719883023550489	2.701484151276187	47.37176632937494	-1.228383219797553	15.54659884437356	37.71216864864006	108.3829478588909	0	0	39.62868464802291	-2.887534473331961	13.65103254453748	37.40582932888793	94.73338059528335	0	0
0.3	-15.33730834958311	-5.894201681366782	25.43844429157825	0	0.9399999999999999	0	36.78999944646186	-16.66895080277722	-12.01017026709177	48.6877920662266	0.8497622770820272	0	0	0	36.78999944646186	-16.66895080277722	-12.01017026709177	48.6877920662266	0.8497622770820272	0	0	0	-15.23569856605567	-1.708819231885555	2.692696042827504	47.32076631838059	-1.223470685275925	15.69077228437072	37.63439116320399	108.3386759632179	0	0	39.51084229202346	-2.950349059722968	13.59479653529885	37.6886209062751	95.52784622093353	0	0
0.32	-15.32854280707448	-5.890990280752612	25.47475675495075	0	0.9399999999999999	0	36.79235833048373	-16.66241877668481	-12.00892168426363	48.68904878555033	0.8497842109719999	0	0	0	36.79235833048373	-16.66241877668481	-12.00892168426363	48.68904878555033	0.8497842109719999	0	0	0	-15.23257681352481	-1.691483711121691	2.635784853270875	47.33343723262725	-1.228111483946852	15.80439755241566	37.59740057414989	108.267359416932	0	0	39.48782603640422	-2.981687266295953	13.48105055893714	37.90994327220429	96.12948811060508	0	0
0.34	-15.30346776723799	-5.881067567692534	25.44196655385382	0	0.9399999999999999	0	36.82444708332162	-16.58168594090381	-11.9925925050135	48.70584271237576	0.8500773202894425	0	0	0	36.82444708332162	-16.58168594090381	-11.9925925050135	48.70584271237576	0.8500773202894425	0	0	0	-15.21200202023562	-1.675496040778702	2.599293699004019	47.31754259462848	-1.203791798595591	15.94770649437418	37.58018015498136	108.2112569029757	0	0	39.43955381346009	-3.019923517113108	13.35244000160975	38.06819673720177	96.49313125379572	0	0
0.36	-15.28452310258637	-5.876949262675782	25.43581412916945	0	0.9399999999999999	0	36.83775712794418	-16.54927796541814	-11.985934160412	48.71286085111561	0.8501998099178147	0	0	0	36.83775712794418	-16.54927796541814	-11.985934160412	48.71286085111561	0.8501998099178147	0	0	0	-15.19541439971345	-1.674210367026923	2.588224883215624	47.31445476194457	-1.203299171724439	16.03032818533711	37.52730828730103	108.1765340556985	0	0	39.4238324860641	-3.067031428983475	13.33663548040792	38.16466841117661	96.75230228989656	0	0
